%TF.GenerationSoftware,KiCad,Pcbnew,9.0.4*%
%TF.CreationDate,2025-09-18T12:37:01+02:00*%
%TF.ProjectId,gaia-filler,67616961-2d66-4696-9c6c-65722e6b6963,1.0*%
%TF.SameCoordinates,Original*%
%TF.FileFunction,Soldermask,Bot*%
%TF.FilePolarity,Negative*%
%FSLAX46Y46*%
G04 Gerber Fmt 4.6, Leading zero omitted, Abs format (unit mm)*
G04 Created by KiCad (PCBNEW 9.0.4) date 2025-09-18 12:37:01*
%MOMM*%
%LPD*%
G01*
G04 APERTURE LIST*
%ADD10R,2.580000X1.000000*%
G04 APERTURE END LIST*
D10*
%TO.C,J2*%
X166916938Y-82500000D03*
X171086938Y-82500000D03*
X166916938Y-84500000D03*
X171086938Y-84500000D03*
X166916938Y-86500000D03*
X171086938Y-86500000D03*
X166916938Y-88500000D03*
X171086938Y-88500000D03*
X166916938Y-90500000D03*
X171086938Y-90500000D03*
X166916938Y-92500000D03*
X171086938Y-92500000D03*
X166916938Y-94500000D03*
X171086938Y-94500000D03*
X166916938Y-96500000D03*
X171086938Y-96500000D03*
X166916938Y-98500000D03*
X171086938Y-98500000D03*
X166916938Y-100500000D03*
X171086938Y-100500000D03*
%TD*%
%TO.C,J3*%
X207306938Y-82500000D03*
X211476938Y-82500000D03*
X207306938Y-84500000D03*
X211476938Y-84500000D03*
X207306938Y-86500000D03*
X211476938Y-86500000D03*
X207306938Y-88500000D03*
X211476938Y-88500000D03*
X207306938Y-90500000D03*
X211476938Y-90500000D03*
X207306938Y-92500000D03*
X211476938Y-92500000D03*
X207306938Y-94500000D03*
X211476938Y-94500000D03*
X207306938Y-96500000D03*
X211476938Y-96500000D03*
X207306938Y-98500000D03*
X211476938Y-98500000D03*
X207306938Y-100500000D03*
X211476938Y-100500000D03*
%TD*%
M02*
