M48
; DRILL file {KiCad 9.0.4} date 2025-09-18T12:37:05+0200
; FORMAT={-:-/ absolute / inch / decimal}
; #@! TF.CreationDate,2025-09-18T12:37:05+02:00
; #@! TF.GenerationSoftware,Kicad,Pcbnew,9.0.4
; #@! TF.FileFunction,Plated,1,2,PTH
FMAT,2
INCH
; #@! TA.AperFunction,Plated,PTH,ComponentDrill
T1C0.0276
%
G90
G05
T1
X6.5715Y-3.248
X6.5715Y-3.3268
X6.5715Y-3.4055
X6.5715Y-3.4843
X6.5715Y-3.563
X6.5715Y-3.6417
X6.5715Y-3.7205
X6.5715Y-3.7992
X6.5715Y-3.878
X6.5715Y-3.9567
X6.7357Y-3.248
X6.7357Y-3.3268
X6.7357Y-3.4055
X6.7357Y-3.4843
X6.7357Y-3.563
X6.7357Y-3.6417
X6.7357Y-3.7205
X6.7357Y-3.7992
X6.7357Y-3.878
X6.7357Y-3.9567
X8.1617Y-3.248
X8.1617Y-3.3268
X8.1617Y-3.4055
X8.1617Y-3.4843
X8.1617Y-3.563
X8.1617Y-3.6417
X8.1617Y-3.7205
X8.1617Y-3.7992
X8.1617Y-3.878
X8.1617Y-3.9567
X8.3259Y-3.248
X8.3259Y-3.3268
X8.3259Y-3.4055
X8.3259Y-3.4843
X8.3259Y-3.563
X8.3259Y-3.6417
X8.3259Y-3.7205
X8.3259Y-3.7992
X8.3259Y-3.878
X8.3259Y-3.9567
M30
