%TF.GenerationSoftware,KiCad,Pcbnew,9.0.4*%
%TF.CreationDate,2025-09-18T12:36:59+02:00*%
%TF.ProjectId,gaia-filler,67616961-2d66-4696-9c6c-65722e6b6963,1.0*%
%TF.SameCoordinates,Original*%
%TF.FileFunction,Copper,L2,Bot*%
%TF.FilePolarity,Positive*%
%FSLAX46Y46*%
G04 Gerber Fmt 4.6, Leading zero omitted, Abs format (unit mm)*
G04 Created by KiCad (PCBNEW 9.0.4) date 2025-09-18 12:36:59*
%MOMM*%
%LPD*%
G01*
G04 APERTURE LIST*
%TA.AperFunction,ComponentPad*%
%ADD10R,2.580000X1.000000*%
%TD*%
G04 APERTURE END LIST*
D10*
%TO.P,J2,1,Pin_1*%
%TO.N,unconnected-(J2-Pin_1-Pad1)*%
X166916938Y-82500000D03*
%TO.P,J2,2,Pin_2*%
%TO.N,unconnected-(J2-Pin_2-Pad2)*%
X171086938Y-82500000D03*
%TO.P,J2,3,Pin_3*%
%TO.N,unconnected-(J2-Pin_3-Pad3)*%
X166916938Y-84500000D03*
%TO.P,J2,4,Pin_4*%
%TO.N,unconnected-(J2-Pin_4-Pad4)*%
X171086938Y-84500000D03*
%TO.P,J2,5,Pin_5*%
%TO.N,unconnected-(J2-Pin_5-Pad5)*%
X166916938Y-86500000D03*
%TO.P,J2,6,Pin_6*%
%TO.N,unconnected-(J2-Pin_6-Pad6)*%
X171086938Y-86500000D03*
%TO.P,J2,7,Pin_7*%
%TO.N,GND*%
X166916938Y-88500000D03*
%TO.P,J2,8,Pin_8*%
%TO.N,unconnected-(J2-Pin_8-Pad8)*%
X171086938Y-88500000D03*
%TO.P,J2,9,Pin_9*%
%TO.N,GND*%
X166916938Y-90500000D03*
%TO.P,J2,10,Pin_10*%
%TO.N,unconnected-(J2-Pin_10-Pad10)*%
X171086938Y-90500000D03*
%TO.P,J2,11,Pin_11*%
%TO.N,unconnected-(J2-Pin_11-Pad11)*%
X166916938Y-92500000D03*
%TO.P,J2,12,Pin_12*%
%TO.N,unconnected-(J2-Pin_12-Pad12)*%
X171086938Y-92500000D03*
%TO.P,J2,13,Pin_13*%
%TO.N,unconnected-(J2-Pin_13-Pad13)*%
X166916938Y-94500000D03*
%TO.P,J2,14,Pin_14*%
%TO.N,unconnected-(J2-Pin_14-Pad14)*%
X171086938Y-94500000D03*
%TO.P,J2,15,Pin_15*%
%TO.N,unconnected-(J2-Pin_15-Pad15)*%
X166916938Y-96500000D03*
%TO.P,J2,16,Pin_16*%
%TO.N,unconnected-(J2-Pin_16-Pad16)*%
X171086938Y-96500000D03*
%TO.P,J2,17,Pin_17*%
%TO.N,GND*%
X166916938Y-98500000D03*
%TO.P,J2,18,Pin_18*%
X171086938Y-98500000D03*
%TO.P,J2,19,Pin_19*%
X166916938Y-100500000D03*
%TO.P,J2,20,Pin_20*%
X171086938Y-100500000D03*
%TD*%
%TO.P,J3,1,Pin_1*%
%TO.N,unconnected-(J3-Pin_1-Pad1)*%
X207306938Y-82500000D03*
%TO.P,J3,2,Pin_2*%
%TO.N,unconnected-(J3-Pin_2-Pad2)*%
X211476938Y-82500000D03*
%TO.P,J3,3,Pin_3*%
%TO.N,unconnected-(J3-Pin_3-Pad3)*%
X207306938Y-84500000D03*
%TO.P,J3,4,Pin_4*%
%TO.N,unconnected-(J3-Pin_4-Pad4)*%
X211476938Y-84500000D03*
%TO.P,J3,5,Pin_5*%
%TO.N,unconnected-(J3-Pin_5-Pad5)*%
X207306938Y-86500000D03*
%TO.P,J3,6,Pin_6*%
%TO.N,unconnected-(J3-Pin_6-Pad6)*%
X211476938Y-86500000D03*
%TO.P,J3,7,Pin_7*%
%TO.N,unconnected-(J3-Pin_7-Pad7)*%
X207306938Y-88500000D03*
%TO.P,J3,8,Pin_8*%
%TO.N,unconnected-(J3-Pin_8-Pad8)*%
X211476938Y-88500000D03*
%TO.P,J3,9,Pin_9*%
%TO.N,unconnected-(J3-Pin_9-Pad9)*%
X207306938Y-90500000D03*
%TO.P,J3,10,Pin_10*%
%TO.N,unconnected-(J3-Pin_10-Pad10)*%
X211476938Y-90500000D03*
%TO.P,J3,11,Pin_11*%
%TO.N,unconnected-(J3-Pin_11-Pad11)*%
X207306938Y-92500000D03*
%TO.P,J3,12,Pin_12*%
%TO.N,unconnected-(J3-Pin_12-Pad12)*%
X211476938Y-92500000D03*
%TO.P,J3,13,Pin_13*%
%TO.N,GND*%
X207306938Y-94500000D03*
%TO.P,J3,14,Pin_14*%
X211476938Y-94500000D03*
%TO.P,J3,15,Pin_15*%
X207306938Y-96500000D03*
%TO.P,J3,16,Pin_16*%
X211476938Y-96500000D03*
%TO.P,J3,17,Pin_17*%
%TO.N,unconnected-(J3-Pin_17-Pad17)*%
X207306938Y-98500000D03*
%TO.P,J3,18,Pin_18*%
%TO.N,unconnected-(J3-Pin_18-Pad18)*%
X211476938Y-98500000D03*
%TO.P,J3,19,Pin_19*%
%TO.N,unconnected-(J3-Pin_19-Pad19)*%
X207306938Y-100500000D03*
%TO.P,J3,20,Pin_20*%
%TO.N,unconnected-(J3-Pin_20-Pad20)*%
X211476938Y-100500000D03*
%TD*%
%TA.AperFunction,Conductor*%
%TO.N,GND*%
G36*
X173941383Y-67513942D02*
G01*
X173987718Y-67566238D01*
X173999500Y-67618992D01*
X173999500Y-70365907D01*
X174033608Y-70493203D01*
X174066554Y-70550266D01*
X174099500Y-70607330D01*
X174192686Y-70700516D01*
X174291521Y-70757579D01*
X174306784Y-70766391D01*
X174306814Y-70766408D01*
X174434108Y-70800516D01*
X174434110Y-70800516D01*
X174617248Y-70800516D01*
X174617251Y-70800514D01*
X203959766Y-70800500D01*
X204087060Y-70766392D01*
X204201188Y-70700500D01*
X204294374Y-70607314D01*
X204360266Y-70493186D01*
X204394374Y-70365892D01*
X204394374Y-70234108D01*
X204394374Y-67618975D01*
X204414059Y-67551936D01*
X204466863Y-67506181D01*
X204536021Y-67496237D01*
X204586559Y-67515405D01*
X205267851Y-67963955D01*
X205271303Y-67966313D01*
X206055359Y-68521457D01*
X206058744Y-68523941D01*
X206823567Y-69105318D01*
X206826866Y-69107915D01*
X207571575Y-69714852D01*
X207574778Y-69717554D01*
X207668666Y-69799515D01*
X208298511Y-70349351D01*
X208301624Y-70352162D01*
X208316333Y-70365907D01*
X209003575Y-71008118D01*
X209006593Y-71011036D01*
X209685905Y-71690346D01*
X209688823Y-71693364D01*
X210344778Y-72395311D01*
X210347592Y-72398427D01*
X210979386Y-73122152D01*
X210982093Y-73125361D01*
X211589021Y-73870053D01*
X211591618Y-73873351D01*
X212173008Y-74638189D01*
X212175492Y-74641574D01*
X212730662Y-75425660D01*
X212733029Y-75429127D01*
X213261315Y-76231524D01*
X213263564Y-76235069D01*
X213530241Y-76671606D01*
X213649578Y-76866956D01*
X213678255Y-76913898D01*
X213696438Y-76978541D01*
X213696438Y-106021416D01*
X213678255Y-106086059D01*
X213263546Y-106764918D01*
X213261297Y-106768463D01*
X212733010Y-107570860D01*
X212730643Y-107574327D01*
X212175474Y-108358413D01*
X212172990Y-108361798D01*
X211591600Y-109126636D01*
X211589003Y-109129934D01*
X210982076Y-109874627D01*
X210979369Y-109877836D01*
X210347576Y-110601562D01*
X210344762Y-110604678D01*
X209688809Y-111306626D01*
X209685891Y-111309644D01*
X209006581Y-111988955D01*
X209003563Y-111991873D01*
X208301616Y-112647828D01*
X208298500Y-112650642D01*
X207574788Y-113282424D01*
X207571580Y-113285131D01*
X206826860Y-113892083D01*
X206823561Y-113894680D01*
X206058739Y-114476059D01*
X206055354Y-114478543D01*
X205271268Y-115033715D01*
X205267801Y-115036082D01*
X204586564Y-115484600D01*
X204519746Y-115505024D01*
X204452493Y-115486082D01*
X204406158Y-115433787D01*
X204394376Y-115381032D01*
X204394376Y-112634110D01*
X204394376Y-112634108D01*
X204360268Y-112506814D01*
X204294376Y-112392686D01*
X204201190Y-112299500D01*
X204144126Y-112266554D01*
X204087063Y-112233608D01*
X204023415Y-112216554D01*
X203959768Y-112199500D01*
X203959766Y-112199499D01*
X203959765Y-112199499D01*
X174565892Y-112199499D01*
X174434108Y-112199499D01*
X174306812Y-112233607D01*
X174192686Y-112299499D01*
X174192683Y-112299501D01*
X174099502Y-112392682D01*
X174099500Y-112392685D01*
X174033608Y-112506811D01*
X173999500Y-112634107D01*
X173999500Y-115381020D01*
X173979815Y-115448059D01*
X173927011Y-115493814D01*
X173857853Y-115503758D01*
X173807312Y-115484589D01*
X173126053Y-115036061D01*
X173122586Y-115033693D01*
X172338505Y-114478529D01*
X172335121Y-114476045D01*
X171570310Y-113894678D01*
X171567011Y-113892081D01*
X170822303Y-113285144D01*
X170819094Y-113282437D01*
X170095368Y-112650644D01*
X170092252Y-112647830D01*
X169390304Y-111991877D01*
X169387286Y-111988959D01*
X168707975Y-111309649D01*
X168705057Y-111306631D01*
X168049102Y-110604684D01*
X168046288Y-110601568D01*
X168046283Y-110601562D01*
X167414489Y-109877836D01*
X167411788Y-109874634D01*
X166804860Y-109129941D01*
X166804854Y-109129934D01*
X166804848Y-109129925D01*
X166802263Y-109126642D01*
X166220874Y-108361804D01*
X166218390Y-108358420D01*
X165663220Y-107574334D01*
X165660853Y-107570867D01*
X165132568Y-106768470D01*
X165130319Y-106764925D01*
X164715621Y-106086082D01*
X164697438Y-106021439D01*
X164697438Y-101047844D01*
X165126938Y-101047844D01*
X165133339Y-101107372D01*
X165133341Y-101107379D01*
X165183583Y-101242086D01*
X165183587Y-101242093D01*
X165269747Y-101357187D01*
X165269750Y-101357190D01*
X165384844Y-101443350D01*
X165384851Y-101443354D01*
X165519558Y-101493596D01*
X165519565Y-101493598D01*
X165579093Y-101499999D01*
X165579110Y-101500000D01*
X166666938Y-101500000D01*
X167166938Y-101500000D01*
X168254766Y-101500000D01*
X168254782Y-101499999D01*
X168314310Y-101493598D01*
X168314317Y-101493596D01*
X168449024Y-101443354D01*
X168449031Y-101443350D01*
X168564125Y-101357190D01*
X168564128Y-101357187D01*
X168650288Y-101242093D01*
X168650292Y-101242086D01*
X168700534Y-101107379D01*
X168700536Y-101107372D01*
X168706937Y-101047844D01*
X169296938Y-101047844D01*
X169303339Y-101107372D01*
X169303341Y-101107379D01*
X169353583Y-101242086D01*
X169353587Y-101242093D01*
X169439747Y-101357187D01*
X169439750Y-101357190D01*
X169554844Y-101443350D01*
X169554851Y-101443354D01*
X169689558Y-101493596D01*
X169689565Y-101493598D01*
X169749093Y-101499999D01*
X169749110Y-101500000D01*
X170836938Y-101500000D01*
X171336938Y-101500000D01*
X172424766Y-101500000D01*
X172424782Y-101499999D01*
X172484310Y-101493598D01*
X172484317Y-101493596D01*
X172619024Y-101443354D01*
X172619031Y-101443350D01*
X172734125Y-101357190D01*
X172734128Y-101357187D01*
X172820288Y-101242093D01*
X172820292Y-101242086D01*
X172870534Y-101107379D01*
X172870536Y-101107372D01*
X172876937Y-101047844D01*
X172876938Y-101047827D01*
X172876938Y-100750000D01*
X171336938Y-100750000D01*
X171336938Y-101500000D01*
X170836938Y-101500000D01*
X170836938Y-100750000D01*
X169296938Y-100750000D01*
X169296938Y-101047844D01*
X168706937Y-101047844D01*
X168706938Y-101047827D01*
X168706938Y-100750000D01*
X167166938Y-100750000D01*
X167166938Y-101500000D01*
X166666938Y-101500000D01*
X166666938Y-100750000D01*
X165126938Y-100750000D01*
X165126938Y-101047844D01*
X164697438Y-101047844D01*
X164697438Y-100453922D01*
X166566938Y-100453922D01*
X166566938Y-100546078D01*
X166590790Y-100635095D01*
X166636868Y-100714905D01*
X166702033Y-100780070D01*
X166781843Y-100826148D01*
X166870860Y-100850000D01*
X166963016Y-100850000D01*
X167052033Y-100826148D01*
X167131843Y-100780070D01*
X167197008Y-100714905D01*
X167243086Y-100635095D01*
X167266938Y-100546078D01*
X167266938Y-100453922D01*
X170736938Y-100453922D01*
X170736938Y-100546078D01*
X170760790Y-100635095D01*
X170806868Y-100714905D01*
X170872033Y-100780070D01*
X170951843Y-100826148D01*
X171040860Y-100850000D01*
X171133016Y-100850000D01*
X171222033Y-100826148D01*
X171301843Y-100780070D01*
X171367008Y-100714905D01*
X171413086Y-100635095D01*
X171436938Y-100546078D01*
X171436938Y-100453922D01*
X171413086Y-100364905D01*
X171367008Y-100285095D01*
X171331913Y-100250000D01*
X171336938Y-100250000D01*
X172876938Y-100250000D01*
X172876938Y-99952172D01*
X172876937Y-99952155D01*
X172870536Y-99892627D01*
X172870534Y-99892620D01*
X172820292Y-99757913D01*
X172820288Y-99757906D01*
X172734128Y-99642813D01*
X172675959Y-99599267D01*
X172634088Y-99543333D01*
X172629104Y-99473641D01*
X172662589Y-99412318D01*
X172675959Y-99400733D01*
X172734128Y-99357186D01*
X172820288Y-99242093D01*
X172820292Y-99242086D01*
X172870534Y-99107379D01*
X172870536Y-99107372D01*
X172876937Y-99047844D01*
X172876938Y-99047827D01*
X172876938Y-98750000D01*
X171336938Y-98750000D01*
X171336938Y-100250000D01*
X171331913Y-100250000D01*
X171301843Y-100219930D01*
X171222033Y-100173852D01*
X171133016Y-100150000D01*
X171040860Y-100150000D01*
X170951843Y-100173852D01*
X170872033Y-100219930D01*
X170806868Y-100285095D01*
X170760790Y-100364905D01*
X170736938Y-100453922D01*
X167266938Y-100453922D01*
X167243086Y-100364905D01*
X167197008Y-100285095D01*
X167161913Y-100250000D01*
X167166938Y-100250000D01*
X168706938Y-100250000D01*
X168706938Y-99952172D01*
X168706937Y-99952155D01*
X168700536Y-99892627D01*
X168700534Y-99892620D01*
X168650292Y-99757913D01*
X168650288Y-99757906D01*
X168564128Y-99642813D01*
X168505959Y-99599267D01*
X168464088Y-99543333D01*
X168459104Y-99473641D01*
X168492589Y-99412318D01*
X168505959Y-99400733D01*
X168564128Y-99357186D01*
X168650288Y-99242093D01*
X168650292Y-99242086D01*
X168700534Y-99107379D01*
X168700536Y-99107372D01*
X168706937Y-99047844D01*
X169296938Y-99047844D01*
X169303339Y-99107372D01*
X169303341Y-99107379D01*
X169353583Y-99242086D01*
X169353587Y-99242093D01*
X169439747Y-99357187D01*
X169497917Y-99400734D01*
X169539787Y-99456668D01*
X169544771Y-99526360D01*
X169511285Y-99587683D01*
X169497917Y-99599266D01*
X169439747Y-99642812D01*
X169353587Y-99757906D01*
X169353583Y-99757913D01*
X169303341Y-99892620D01*
X169303339Y-99892627D01*
X169296938Y-99952155D01*
X169296938Y-100250000D01*
X170836938Y-100250000D01*
X170836938Y-98750000D01*
X169296938Y-98750000D01*
X169296938Y-99047844D01*
X168706937Y-99047844D01*
X168706938Y-99047827D01*
X168706938Y-98750000D01*
X167166938Y-98750000D01*
X167166938Y-100250000D01*
X167161913Y-100250000D01*
X167131843Y-100219930D01*
X167052033Y-100173852D01*
X166963016Y-100150000D01*
X166870860Y-100150000D01*
X166781843Y-100173852D01*
X166702033Y-100219930D01*
X166636868Y-100285095D01*
X166590790Y-100364905D01*
X166566938Y-100453922D01*
X164697438Y-100453922D01*
X164697438Y-99047844D01*
X165126938Y-99047844D01*
X165133339Y-99107372D01*
X165133341Y-99107379D01*
X165183583Y-99242086D01*
X165183587Y-99242093D01*
X165269747Y-99357187D01*
X165327917Y-99400734D01*
X165369787Y-99456668D01*
X165374771Y-99526360D01*
X165341285Y-99587683D01*
X165327917Y-99599266D01*
X165269747Y-99642812D01*
X165183587Y-99757906D01*
X165183583Y-99757913D01*
X165133341Y-99892620D01*
X165133339Y-99892627D01*
X165126938Y-99952155D01*
X165126938Y-100250000D01*
X166666938Y-100250000D01*
X166666938Y-98750000D01*
X165126938Y-98750000D01*
X165126938Y-99047844D01*
X164697438Y-99047844D01*
X164697438Y-91952135D01*
X165126438Y-91952135D01*
X165126438Y-93047870D01*
X165126439Y-93047876D01*
X165132846Y-93107483D01*
X165183140Y-93242328D01*
X165183144Y-93242335D01*
X165269390Y-93357544D01*
X165269391Y-93357544D01*
X165269392Y-93357546D01*
X165298553Y-93379376D01*
X165327083Y-93400734D01*
X165368953Y-93456668D01*
X165373937Y-93526360D01*
X165340451Y-93587683D01*
X165327083Y-93599266D01*
X165269390Y-93642455D01*
X165183144Y-93757664D01*
X165183140Y-93757671D01*
X165132846Y-93892517D01*
X165126439Y-93952116D01*
X165126439Y-93952123D01*
X165126438Y-93952135D01*
X165126438Y-95047870D01*
X165126439Y-95047876D01*
X165132846Y-95107483D01*
X165183140Y-95242328D01*
X165183144Y-95242335D01*
X165269390Y-95357544D01*
X165269391Y-95357544D01*
X165269392Y-95357546D01*
X165298553Y-95379376D01*
X165327083Y-95400734D01*
X165368953Y-95456668D01*
X165373937Y-95526360D01*
X165340451Y-95587683D01*
X165327083Y-95599266D01*
X165269390Y-95642455D01*
X165183144Y-95757664D01*
X165183140Y-95757671D01*
X165132846Y-95892517D01*
X165126439Y-95952116D01*
X165126439Y-95952123D01*
X165126438Y-95952135D01*
X165126438Y-97047870D01*
X165126439Y-97047876D01*
X165132846Y-97107483D01*
X165183140Y-97242328D01*
X165183144Y-97242335D01*
X165269390Y-97357544D01*
X165269391Y-97357544D01*
X165269392Y-97357546D01*
X165304665Y-97383951D01*
X165327500Y-97401046D01*
X165369370Y-97456980D01*
X165374354Y-97526672D01*
X165340868Y-97587994D01*
X165327500Y-97599578D01*
X165269747Y-97642812D01*
X165183587Y-97757906D01*
X165183583Y-97757913D01*
X165133341Y-97892620D01*
X165133339Y-97892627D01*
X165126938Y-97952155D01*
X165126938Y-98250000D01*
X166671963Y-98250000D01*
X166636868Y-98285095D01*
X166590790Y-98364905D01*
X166566938Y-98453922D01*
X166566938Y-98546078D01*
X166590790Y-98635095D01*
X166636868Y-98714905D01*
X166702033Y-98780070D01*
X166781843Y-98826148D01*
X166870860Y-98850000D01*
X166963016Y-98850000D01*
X167052033Y-98826148D01*
X167131843Y-98780070D01*
X167197008Y-98714905D01*
X167243086Y-98635095D01*
X167266938Y-98546078D01*
X167266938Y-98453922D01*
X167243086Y-98364905D01*
X167197008Y-98285095D01*
X167161913Y-98250000D01*
X168706938Y-98250000D01*
X168706938Y-97952172D01*
X168706937Y-97952155D01*
X168700536Y-97892627D01*
X168700534Y-97892620D01*
X168650292Y-97757913D01*
X168650288Y-97757906D01*
X168564128Y-97642812D01*
X168564125Y-97642809D01*
X168506376Y-97599578D01*
X168464505Y-97543645D01*
X168459521Y-97473953D01*
X168493007Y-97412630D01*
X168506370Y-97401049D01*
X168564484Y-97357546D01*
X168650734Y-97242331D01*
X168701029Y-97107483D01*
X168707438Y-97047873D01*
X168707437Y-95952128D01*
X168701029Y-95892517D01*
X168650822Y-95757906D01*
X168650735Y-95757671D01*
X168650731Y-95757664D01*
X168599061Y-95688643D01*
X168564484Y-95642454D01*
X168506792Y-95599265D01*
X168464922Y-95543333D01*
X168459938Y-95473641D01*
X168493423Y-95412318D01*
X168506792Y-95400734D01*
X168564484Y-95357546D01*
X168650734Y-95242331D01*
X168701029Y-95107483D01*
X168707438Y-95047873D01*
X168707437Y-93952128D01*
X168701029Y-93892517D01*
X168650822Y-93757906D01*
X168650735Y-93757671D01*
X168650731Y-93757664D01*
X168564752Y-93642812D01*
X168564484Y-93642454D01*
X168506792Y-93599265D01*
X168464922Y-93543333D01*
X168459938Y-93473641D01*
X168493423Y-93412318D01*
X168506792Y-93400734D01*
X168564484Y-93357546D01*
X168650734Y-93242331D01*
X168701029Y-93107483D01*
X168707438Y-93047873D01*
X168707437Y-91952128D01*
X168701029Y-91892517D01*
X168696259Y-91879729D01*
X168650735Y-91757671D01*
X168650731Y-91757664D01*
X168564485Y-91642455D01*
X168564482Y-91642453D01*
X168506794Y-91599267D01*
X168506375Y-91598953D01*
X168464505Y-91543019D01*
X168459521Y-91473327D01*
X168493007Y-91412004D01*
X168506377Y-91400420D01*
X168564127Y-91357188D01*
X168564128Y-91357187D01*
X168650288Y-91242093D01*
X168650292Y-91242086D01*
X168700534Y-91107379D01*
X168700536Y-91107372D01*
X168706937Y-91047844D01*
X168706938Y-91047827D01*
X168706938Y-90750000D01*
X167161913Y-90750000D01*
X167197008Y-90714905D01*
X167243086Y-90635095D01*
X167266938Y-90546078D01*
X167266938Y-90453922D01*
X167243086Y-90364905D01*
X167197008Y-90285095D01*
X167161913Y-90250000D01*
X167166938Y-90250000D01*
X168706938Y-90250000D01*
X168706938Y-89952172D01*
X168706937Y-89952155D01*
X168700536Y-89892627D01*
X168700534Y-89892620D01*
X168650292Y-89757913D01*
X168650288Y-89757906D01*
X168564128Y-89642813D01*
X168505959Y-89599267D01*
X168464088Y-89543333D01*
X168459104Y-89473641D01*
X168492589Y-89412318D01*
X168505959Y-89400733D01*
X168564128Y-89357186D01*
X168650288Y-89242093D01*
X168650292Y-89242086D01*
X168700534Y-89107379D01*
X168700536Y-89107372D01*
X168706937Y-89047844D01*
X168706938Y-89047827D01*
X168706938Y-88750000D01*
X167166938Y-88750000D01*
X167166938Y-90250000D01*
X167161913Y-90250000D01*
X167131843Y-90219930D01*
X167052033Y-90173852D01*
X166963016Y-90150000D01*
X166870860Y-90150000D01*
X166781843Y-90173852D01*
X166702033Y-90219930D01*
X166636868Y-90285095D01*
X166590790Y-90364905D01*
X166566938Y-90453922D01*
X166566938Y-90546078D01*
X166590790Y-90635095D01*
X166636868Y-90714905D01*
X166671963Y-90750000D01*
X165126938Y-90750000D01*
X165126938Y-91047844D01*
X165133339Y-91107372D01*
X165133341Y-91107379D01*
X165183583Y-91242086D01*
X165183587Y-91242093D01*
X165269747Y-91357186D01*
X165327499Y-91400420D01*
X165369370Y-91456354D01*
X165374354Y-91526046D01*
X165340869Y-91587369D01*
X165327501Y-91598952D01*
X165269392Y-91642453D01*
X165269390Y-91642455D01*
X165183144Y-91757664D01*
X165183140Y-91757671D01*
X165132846Y-91892517D01*
X165126439Y-91952116D01*
X165126439Y-91952123D01*
X165126438Y-91952135D01*
X164697438Y-91952135D01*
X164697438Y-89047844D01*
X165126938Y-89047844D01*
X165133339Y-89107372D01*
X165133341Y-89107379D01*
X165183583Y-89242086D01*
X165183587Y-89242093D01*
X165269747Y-89357187D01*
X165327917Y-89400734D01*
X165369787Y-89456668D01*
X165374771Y-89526360D01*
X165341285Y-89587683D01*
X165327917Y-89599266D01*
X165269747Y-89642812D01*
X165183587Y-89757906D01*
X165183583Y-89757913D01*
X165133341Y-89892620D01*
X165133339Y-89892627D01*
X165126938Y-89952155D01*
X165126938Y-90250000D01*
X166666938Y-90250000D01*
X166666938Y-88750000D01*
X165126938Y-88750000D01*
X165126938Y-89047844D01*
X164697438Y-89047844D01*
X164697438Y-81952135D01*
X165126438Y-81952135D01*
X165126438Y-83047870D01*
X165126439Y-83047876D01*
X165132846Y-83107483D01*
X165183140Y-83242328D01*
X165183144Y-83242335D01*
X165269390Y-83357544D01*
X165269391Y-83357544D01*
X165269392Y-83357546D01*
X165298553Y-83379376D01*
X165327083Y-83400734D01*
X165368953Y-83456668D01*
X165373937Y-83526360D01*
X165340451Y-83587683D01*
X165327083Y-83599266D01*
X165269390Y-83642455D01*
X165183144Y-83757664D01*
X165183140Y-83757671D01*
X165132846Y-83892517D01*
X165129793Y-83920920D01*
X165126439Y-83952123D01*
X165126438Y-83952135D01*
X165126438Y-85047870D01*
X165126439Y-85047876D01*
X165132846Y-85107483D01*
X165183140Y-85242328D01*
X165183144Y-85242335D01*
X165269390Y-85357544D01*
X165269391Y-85357544D01*
X165269392Y-85357546D01*
X165298553Y-85379376D01*
X165327083Y-85400734D01*
X165368953Y-85456668D01*
X165373937Y-85526360D01*
X165340451Y-85587683D01*
X165327083Y-85599266D01*
X165269390Y-85642455D01*
X165183144Y-85757664D01*
X165183140Y-85757671D01*
X165132846Y-85892517D01*
X165126439Y-85952116D01*
X165126439Y-85952123D01*
X165126438Y-85952135D01*
X165126438Y-87047870D01*
X165126439Y-87047876D01*
X165132846Y-87107483D01*
X165183140Y-87242328D01*
X165183144Y-87242335D01*
X165269390Y-87357544D01*
X165269391Y-87357544D01*
X165269392Y-87357546D01*
X165299681Y-87380220D01*
X165327500Y-87401046D01*
X165369370Y-87456980D01*
X165374354Y-87526672D01*
X165340868Y-87587994D01*
X165327500Y-87599578D01*
X165269747Y-87642812D01*
X165183587Y-87757906D01*
X165183583Y-87757913D01*
X165133341Y-87892620D01*
X165133339Y-87892627D01*
X165126938Y-87952155D01*
X165126938Y-88250000D01*
X166671963Y-88250000D01*
X166636868Y-88285095D01*
X166590790Y-88364905D01*
X166566938Y-88453922D01*
X166566938Y-88546078D01*
X166590790Y-88635095D01*
X166636868Y-88714905D01*
X166702033Y-88780070D01*
X166781843Y-88826148D01*
X166870860Y-88850000D01*
X166963016Y-88850000D01*
X167052033Y-88826148D01*
X167131843Y-88780070D01*
X167197008Y-88714905D01*
X167243086Y-88635095D01*
X167266938Y-88546078D01*
X167266938Y-88453922D01*
X167243086Y-88364905D01*
X167197008Y-88285095D01*
X167161913Y-88250000D01*
X168706938Y-88250000D01*
X168706938Y-87952172D01*
X168706937Y-87952155D01*
X168700536Y-87892627D01*
X168700534Y-87892620D01*
X168650292Y-87757913D01*
X168650288Y-87757906D01*
X168564128Y-87642812D01*
X168564125Y-87642809D01*
X168506376Y-87599578D01*
X168464505Y-87543645D01*
X168459521Y-87473953D01*
X168493007Y-87412630D01*
X168506370Y-87401049D01*
X168564484Y-87357546D01*
X168650734Y-87242331D01*
X168701029Y-87107483D01*
X168707438Y-87047873D01*
X168707437Y-85952128D01*
X168701029Y-85892517D01*
X168650734Y-85757669D01*
X168650733Y-85757668D01*
X168650731Y-85757664D01*
X168564485Y-85642456D01*
X168564486Y-85642456D01*
X168564484Y-85642454D01*
X168506792Y-85599265D01*
X168464922Y-85543333D01*
X168459938Y-85473641D01*
X168493423Y-85412318D01*
X168506792Y-85400734D01*
X168564484Y-85357546D01*
X168650734Y-85242331D01*
X168701029Y-85107483D01*
X168707438Y-85047873D01*
X168707437Y-83952128D01*
X168701029Y-83892517D01*
X168650734Y-83757669D01*
X168650733Y-83757668D01*
X168650731Y-83757664D01*
X168564485Y-83642456D01*
X168564486Y-83642456D01*
X168564484Y-83642454D01*
X168506792Y-83599265D01*
X168464922Y-83543333D01*
X168459938Y-83473641D01*
X168493423Y-83412318D01*
X168506792Y-83400734D01*
X168564484Y-83357546D01*
X168650734Y-83242331D01*
X168701029Y-83107483D01*
X168707438Y-83047873D01*
X168707437Y-81952135D01*
X169296438Y-81952135D01*
X169296438Y-83047870D01*
X169296439Y-83047876D01*
X169302846Y-83107483D01*
X169353140Y-83242328D01*
X169353144Y-83242335D01*
X169439390Y-83357544D01*
X169439391Y-83357544D01*
X169439392Y-83357546D01*
X169468553Y-83379376D01*
X169497083Y-83400734D01*
X169538953Y-83456668D01*
X169543937Y-83526360D01*
X169510451Y-83587683D01*
X169497083Y-83599266D01*
X169439390Y-83642455D01*
X169353144Y-83757664D01*
X169353140Y-83757671D01*
X169302846Y-83892517D01*
X169299793Y-83920920D01*
X169296439Y-83952123D01*
X169296438Y-83952135D01*
X169296438Y-85047870D01*
X169296439Y-85047876D01*
X169302846Y-85107483D01*
X169353140Y-85242328D01*
X169353144Y-85242335D01*
X169439390Y-85357544D01*
X169439391Y-85357544D01*
X169439392Y-85357546D01*
X169468553Y-85379376D01*
X169497083Y-85400734D01*
X169538953Y-85456668D01*
X169543937Y-85526360D01*
X169510451Y-85587683D01*
X169497083Y-85599266D01*
X169439390Y-85642455D01*
X169353144Y-85757664D01*
X169353140Y-85757671D01*
X169302846Y-85892517D01*
X169296439Y-85952116D01*
X169296439Y-85952123D01*
X169296438Y-85952135D01*
X169296438Y-87047870D01*
X169296439Y-87047876D01*
X169302846Y-87107483D01*
X169353140Y-87242328D01*
X169353144Y-87242335D01*
X169439390Y-87357544D01*
X169439391Y-87357544D01*
X169439392Y-87357546D01*
X169468553Y-87379376D01*
X169497083Y-87400734D01*
X169538953Y-87456668D01*
X169543937Y-87526360D01*
X169510451Y-87587683D01*
X169497083Y-87599266D01*
X169439390Y-87642455D01*
X169353144Y-87757664D01*
X169353140Y-87757671D01*
X169302846Y-87892517D01*
X169296439Y-87952116D01*
X169296439Y-87952123D01*
X169296438Y-87952135D01*
X169296438Y-89047870D01*
X169296439Y-89047876D01*
X169302846Y-89107483D01*
X169353140Y-89242328D01*
X169353144Y-89242335D01*
X169439390Y-89357544D01*
X169439391Y-89357544D01*
X169439392Y-89357546D01*
X169468553Y-89379376D01*
X169497083Y-89400734D01*
X169538953Y-89456668D01*
X169543937Y-89526360D01*
X169510451Y-89587683D01*
X169497083Y-89599266D01*
X169439390Y-89642455D01*
X169353144Y-89757664D01*
X169353140Y-89757671D01*
X169302846Y-89892517D01*
X169296439Y-89952116D01*
X169296439Y-89952123D01*
X169296438Y-89952135D01*
X169296438Y-91047870D01*
X169296439Y-91047876D01*
X169302846Y-91107483D01*
X169353140Y-91242328D01*
X169353144Y-91242335D01*
X169439390Y-91357544D01*
X169439391Y-91357544D01*
X169439392Y-91357546D01*
X169468553Y-91379376D01*
X169497083Y-91400734D01*
X169538953Y-91456668D01*
X169543937Y-91526360D01*
X169510451Y-91587683D01*
X169497083Y-91599266D01*
X169439390Y-91642455D01*
X169353144Y-91757664D01*
X169353140Y-91757671D01*
X169302846Y-91892517D01*
X169296439Y-91952116D01*
X169296439Y-91952123D01*
X169296438Y-91952135D01*
X169296438Y-93047870D01*
X169296439Y-93047876D01*
X169302846Y-93107483D01*
X169353140Y-93242328D01*
X169353144Y-93242335D01*
X169439390Y-93357544D01*
X169439391Y-93357544D01*
X169439392Y-93357546D01*
X169468553Y-93379376D01*
X169497083Y-93400734D01*
X169538953Y-93456668D01*
X169543937Y-93526360D01*
X169510451Y-93587683D01*
X169497083Y-93599266D01*
X169439390Y-93642455D01*
X169353144Y-93757664D01*
X169353140Y-93757671D01*
X169302846Y-93892517D01*
X169296439Y-93952116D01*
X169296439Y-93952123D01*
X169296438Y-93952135D01*
X169296438Y-95047870D01*
X169296439Y-95047876D01*
X169302846Y-95107483D01*
X169353140Y-95242328D01*
X169353144Y-95242335D01*
X169439390Y-95357544D01*
X169439391Y-95357544D01*
X169439392Y-95357546D01*
X169468553Y-95379376D01*
X169497083Y-95400734D01*
X169538953Y-95456668D01*
X169543937Y-95526360D01*
X169510451Y-95587683D01*
X169497083Y-95599266D01*
X169439390Y-95642455D01*
X169353144Y-95757664D01*
X169353140Y-95757671D01*
X169302846Y-95892517D01*
X169296439Y-95952116D01*
X169296439Y-95952123D01*
X169296438Y-95952135D01*
X169296438Y-97047870D01*
X169296439Y-97047876D01*
X169302846Y-97107483D01*
X169353140Y-97242328D01*
X169353144Y-97242335D01*
X169439390Y-97357544D01*
X169439391Y-97357544D01*
X169439392Y-97357546D01*
X169474665Y-97383951D01*
X169497500Y-97401046D01*
X169539370Y-97456980D01*
X169544354Y-97526672D01*
X169510868Y-97587994D01*
X169497500Y-97599578D01*
X169439747Y-97642812D01*
X169353587Y-97757906D01*
X169353583Y-97757913D01*
X169303341Y-97892620D01*
X169303339Y-97892627D01*
X169296938Y-97952155D01*
X169296938Y-98250000D01*
X170841963Y-98250000D01*
X170806868Y-98285095D01*
X170760790Y-98364905D01*
X170736938Y-98453922D01*
X170736938Y-98546078D01*
X170760790Y-98635095D01*
X170806868Y-98714905D01*
X170872033Y-98780070D01*
X170951843Y-98826148D01*
X171040860Y-98850000D01*
X171133016Y-98850000D01*
X171222033Y-98826148D01*
X171301843Y-98780070D01*
X171367008Y-98714905D01*
X171413086Y-98635095D01*
X171436938Y-98546078D01*
X171436938Y-98453922D01*
X171413086Y-98364905D01*
X171367008Y-98285095D01*
X171331913Y-98250000D01*
X172876938Y-98250000D01*
X172876938Y-97952172D01*
X172876937Y-97952155D01*
X172870536Y-97892627D01*
X172870534Y-97892620D01*
X172820292Y-97757913D01*
X172820288Y-97757906D01*
X172734128Y-97642812D01*
X172734125Y-97642809D01*
X172676376Y-97599578D01*
X172634505Y-97543645D01*
X172629521Y-97473953D01*
X172663007Y-97412630D01*
X172676370Y-97401049D01*
X172734484Y-97357546D01*
X172820734Y-97242331D01*
X172871029Y-97107483D01*
X172877438Y-97047873D01*
X172877437Y-95952128D01*
X172871029Y-95892517D01*
X172820822Y-95757906D01*
X172820735Y-95757671D01*
X172820731Y-95757664D01*
X172769061Y-95688643D01*
X172734484Y-95642454D01*
X172676792Y-95599265D01*
X172634922Y-95543333D01*
X172629938Y-95473641D01*
X172663423Y-95412318D01*
X172676792Y-95400734D01*
X172734484Y-95357546D01*
X172820734Y-95242331D01*
X172871029Y-95107483D01*
X172877438Y-95047873D01*
X172877437Y-93952128D01*
X172871029Y-93892517D01*
X172820822Y-93757906D01*
X172820735Y-93757671D01*
X172820731Y-93757664D01*
X172734752Y-93642812D01*
X172734484Y-93642454D01*
X172676792Y-93599265D01*
X172634922Y-93543333D01*
X172629938Y-93473641D01*
X172663423Y-93412318D01*
X172676792Y-93400734D01*
X172734484Y-93357546D01*
X172820734Y-93242331D01*
X172871029Y-93107483D01*
X172877438Y-93047873D01*
X172877437Y-91952128D01*
X172871029Y-91892517D01*
X172866259Y-91879729D01*
X172820735Y-91757671D01*
X172820731Y-91757664D01*
X172734485Y-91642456D01*
X172734486Y-91642456D01*
X172734484Y-91642454D01*
X172676792Y-91599265D01*
X172634922Y-91543333D01*
X172629938Y-91473641D01*
X172663423Y-91412318D01*
X172676792Y-91400734D01*
X172734484Y-91357546D01*
X172820734Y-91242331D01*
X172866252Y-91120291D01*
X174696438Y-91120291D01*
X174696438Y-91146624D01*
X174696438Y-91879709D01*
X174696438Y-91879727D01*
X174696439Y-91879729D01*
X174736182Y-92638070D01*
X174736182Y-92638078D01*
X174815563Y-93393350D01*
X174934360Y-94143400D01*
X174934368Y-94143444D01*
X175092250Y-94886222D01*
X175288806Y-95619778D01*
X175288806Y-95619779D01*
X175396802Y-95952155D01*
X175523479Y-96342026D01*
X175795630Y-97051003D01*
X176104513Y-97744766D01*
X176104517Y-97744773D01*
X176104523Y-97744787D01*
X176449285Y-98421419D01*
X176828985Y-99079079D01*
X177242593Y-99715981D01*
X177242595Y-99715984D01*
X177688966Y-100330362D01*
X177688968Y-100330364D01*
X178166887Y-100920545D01*
X178166894Y-100920553D01*
X178675019Y-101484884D01*
X178675047Y-101484913D01*
X179212024Y-102021890D01*
X179212053Y-102021918D01*
X179420799Y-102209873D01*
X179776388Y-102530047D01*
X179776392Y-102530050D01*
X180366573Y-103007969D01*
X180366575Y-103007971D01*
X180980953Y-103454342D01*
X180980956Y-103454344D01*
X181617858Y-103867952D01*
X182236611Y-104225189D01*
X182275525Y-104247656D01*
X182952172Y-104592425D01*
X183645935Y-104901308D01*
X184354912Y-105173459D01*
X184907326Y-105352949D01*
X185077158Y-105408131D01*
X185077162Y-105408132D01*
X185810703Y-105604684D01*
X185810706Y-105604684D01*
X185810715Y-105604687D01*
X186553493Y-105762569D01*
X186553526Y-105762576D01*
X187207780Y-105866199D01*
X187303587Y-105881374D01*
X187303589Y-105881374D01*
X187303594Y-105881375D01*
X188058852Y-105960755D01*
X188817229Y-106000500D01*
X188817248Y-106000500D01*
X189576628Y-106000500D01*
X189576647Y-106000500D01*
X190335024Y-105960755D01*
X191090282Y-105881375D01*
X191840350Y-105762576D01*
X192178831Y-105690629D01*
X192583160Y-105604687D01*
X192583164Y-105604685D01*
X192583173Y-105604684D01*
X193316714Y-105408132D01*
X194038964Y-105173459D01*
X194747941Y-104901308D01*
X195441704Y-104592425D01*
X196118351Y-104247656D01*
X196776026Y-103867947D01*
X197412927Y-103454339D01*
X197768303Y-103196142D01*
X198027300Y-103007971D01*
X198027302Y-103007969D01*
X198027300Y-103007969D01*
X198027309Y-103007964D01*
X198617488Y-102530047D01*
X199181845Y-102021897D01*
X199718835Y-101484907D01*
X200226985Y-100920550D01*
X200704902Y-100330371D01*
X201151277Y-99715989D01*
X201564885Y-99079088D01*
X201944594Y-98421413D01*
X202183703Y-97952135D01*
X205516438Y-97952135D01*
X205516438Y-99047870D01*
X205516439Y-99047876D01*
X205522846Y-99107483D01*
X205573140Y-99242328D01*
X205573144Y-99242335D01*
X205659390Y-99357544D01*
X205659391Y-99357544D01*
X205659392Y-99357546D01*
X205688553Y-99379376D01*
X205717083Y-99400734D01*
X205758953Y-99456668D01*
X205763937Y-99526360D01*
X205730451Y-99587683D01*
X205717083Y-99599266D01*
X205659390Y-99642455D01*
X205573144Y-99757664D01*
X205573140Y-99757671D01*
X205522846Y-99892517D01*
X205516439Y-99952116D01*
X205516439Y-99952123D01*
X205516438Y-99952135D01*
X205516438Y-101047870D01*
X205516439Y-101047876D01*
X205522846Y-101107483D01*
X205573140Y-101242328D01*
X205573144Y-101242335D01*
X205659390Y-101357544D01*
X205659393Y-101357547D01*
X205774602Y-101443793D01*
X205774609Y-101443797D01*
X205909455Y-101494091D01*
X205909454Y-101494091D01*
X205916382Y-101494835D01*
X205969065Y-101500500D01*
X208644810Y-101500499D01*
X208704421Y-101494091D01*
X208839269Y-101443796D01*
X208954484Y-101357546D01*
X209040734Y-101242331D01*
X209091029Y-101107483D01*
X209097438Y-101047873D01*
X209097437Y-99952128D01*
X209091029Y-99892517D01*
X209040822Y-99757906D01*
X209040735Y-99757671D01*
X209040731Y-99757664D01*
X208989061Y-99688643D01*
X208954484Y-99642454D01*
X208896792Y-99599265D01*
X208854922Y-99543333D01*
X208849938Y-99473641D01*
X208883423Y-99412318D01*
X208896792Y-99400734D01*
X208954484Y-99357546D01*
X209040734Y-99242331D01*
X209091029Y-99107483D01*
X209097438Y-99047873D01*
X209097437Y-97952135D01*
X209686438Y-97952135D01*
X209686438Y-99047870D01*
X209686439Y-99047876D01*
X209692846Y-99107483D01*
X209743140Y-99242328D01*
X209743144Y-99242335D01*
X209829390Y-99357544D01*
X209829391Y-99357544D01*
X209829392Y-99357546D01*
X209858553Y-99379376D01*
X209887083Y-99400734D01*
X209928953Y-99456668D01*
X209933937Y-99526360D01*
X209900451Y-99587683D01*
X209887083Y-99599266D01*
X209829390Y-99642455D01*
X209743144Y-99757664D01*
X209743140Y-99757671D01*
X209692846Y-99892517D01*
X209686439Y-99952116D01*
X209686439Y-99952123D01*
X209686438Y-99952135D01*
X209686438Y-101047870D01*
X209686439Y-101047876D01*
X209692846Y-101107483D01*
X209743140Y-101242328D01*
X209743144Y-101242335D01*
X209829390Y-101357544D01*
X209829393Y-101357547D01*
X209944602Y-101443793D01*
X209944609Y-101443797D01*
X210079455Y-101494091D01*
X210079454Y-101494091D01*
X210086382Y-101494835D01*
X210139065Y-101500500D01*
X212814810Y-101500499D01*
X212874421Y-101494091D01*
X213009269Y-101443796D01*
X213124484Y-101357546D01*
X213210734Y-101242331D01*
X213261029Y-101107483D01*
X213267438Y-101047873D01*
X213267437Y-99952128D01*
X213261029Y-99892517D01*
X213210822Y-99757906D01*
X213210735Y-99757671D01*
X213210731Y-99757664D01*
X213159061Y-99688643D01*
X213124484Y-99642454D01*
X213066792Y-99599265D01*
X213024922Y-99543333D01*
X213019938Y-99473641D01*
X213053423Y-99412318D01*
X213066792Y-99400734D01*
X213124484Y-99357546D01*
X213210734Y-99242331D01*
X213261029Y-99107483D01*
X213267438Y-99047873D01*
X213267437Y-97952128D01*
X213261029Y-97892517D01*
X213210822Y-97757906D01*
X213210735Y-97757671D01*
X213210731Y-97757664D01*
X213124485Y-97642455D01*
X213124482Y-97642453D01*
X213106847Y-97629251D01*
X213066375Y-97598953D01*
X213024505Y-97543019D01*
X213019521Y-97473327D01*
X213053007Y-97412004D01*
X213066377Y-97400420D01*
X213124127Y-97357188D01*
X213124128Y-97357187D01*
X213210288Y-97242093D01*
X213210292Y-97242086D01*
X213260534Y-97107379D01*
X213260536Y-97107372D01*
X213266937Y-97047844D01*
X213266938Y-97047827D01*
X213266938Y-96750000D01*
X211721913Y-96750000D01*
X211757008Y-96714905D01*
X211803086Y-96635095D01*
X211826938Y-96546078D01*
X211826938Y-96453922D01*
X211803086Y-96364905D01*
X211757008Y-96285095D01*
X211721913Y-96250000D01*
X211726938Y-96250000D01*
X213266938Y-96250000D01*
X213266938Y-95952172D01*
X213266937Y-95952155D01*
X213260536Y-95892627D01*
X213260534Y-95892620D01*
X213210292Y-95757913D01*
X213210288Y-95757906D01*
X213124128Y-95642813D01*
X213065959Y-95599267D01*
X213024088Y-95543333D01*
X213019104Y-95473641D01*
X213052589Y-95412318D01*
X213065959Y-95400733D01*
X213124128Y-95357186D01*
X213210288Y-95242093D01*
X213210292Y-95242086D01*
X213260534Y-95107379D01*
X213260536Y-95107372D01*
X213266937Y-95047844D01*
X213266938Y-95047827D01*
X213266938Y-94750000D01*
X211726938Y-94750000D01*
X211726938Y-96250000D01*
X211721913Y-96250000D01*
X211691843Y-96219930D01*
X211612033Y-96173852D01*
X211523016Y-96150000D01*
X211430860Y-96150000D01*
X211341843Y-96173852D01*
X211262033Y-96219930D01*
X211196868Y-96285095D01*
X211150790Y-96364905D01*
X211126938Y-96453922D01*
X211126938Y-96546078D01*
X211150790Y-96635095D01*
X211196868Y-96714905D01*
X211231963Y-96750000D01*
X209686938Y-96750000D01*
X209686938Y-97047844D01*
X209693339Y-97107372D01*
X209693341Y-97107379D01*
X209743583Y-97242086D01*
X209743587Y-97242093D01*
X209829747Y-97357186D01*
X209887499Y-97400420D01*
X209929370Y-97456354D01*
X209934354Y-97526046D01*
X209900869Y-97587369D01*
X209887501Y-97598952D01*
X209829392Y-97642453D01*
X209829390Y-97642455D01*
X209743144Y-97757664D01*
X209743140Y-97757671D01*
X209692846Y-97892517D01*
X209686439Y-97952116D01*
X209686439Y-97952123D01*
X209686438Y-97952135D01*
X209097437Y-97952135D01*
X209097437Y-97952128D01*
X209091029Y-97892517D01*
X209040822Y-97757906D01*
X209040735Y-97757671D01*
X209040731Y-97757664D01*
X208954485Y-97642455D01*
X208954482Y-97642453D01*
X208936847Y-97629251D01*
X208896375Y-97598953D01*
X208854505Y-97543019D01*
X208849521Y-97473327D01*
X208883007Y-97412004D01*
X208896377Y-97400420D01*
X208954127Y-97357188D01*
X208954128Y-97357187D01*
X209040288Y-97242093D01*
X209040292Y-97242086D01*
X209090534Y-97107379D01*
X209090536Y-97107372D01*
X209096937Y-97047844D01*
X209096938Y-97047827D01*
X209096938Y-96750000D01*
X207551913Y-96750000D01*
X207587008Y-96714905D01*
X207633086Y-96635095D01*
X207656938Y-96546078D01*
X207656938Y-96453922D01*
X207633086Y-96364905D01*
X207587008Y-96285095D01*
X207551913Y-96250000D01*
X207556938Y-96250000D01*
X209096938Y-96250000D01*
X209096938Y-95952172D01*
X209096937Y-95952155D01*
X209090536Y-95892627D01*
X209090534Y-95892620D01*
X209040292Y-95757913D01*
X209040288Y-95757906D01*
X208954128Y-95642813D01*
X208895959Y-95599267D01*
X208854088Y-95543333D01*
X208849104Y-95473641D01*
X208882589Y-95412318D01*
X208895959Y-95400733D01*
X208954128Y-95357186D01*
X209040288Y-95242093D01*
X209040292Y-95242086D01*
X209090534Y-95107379D01*
X209090536Y-95107372D01*
X209096937Y-95047844D01*
X209686938Y-95047844D01*
X209693339Y-95107372D01*
X209693341Y-95107379D01*
X209743583Y-95242086D01*
X209743587Y-95242093D01*
X209829747Y-95357187D01*
X209887917Y-95400734D01*
X209929787Y-95456668D01*
X209934771Y-95526360D01*
X209901285Y-95587683D01*
X209887917Y-95599266D01*
X209829747Y-95642812D01*
X209743587Y-95757906D01*
X209743583Y-95757913D01*
X209693341Y-95892620D01*
X209693339Y-95892627D01*
X209686938Y-95952155D01*
X209686938Y-96250000D01*
X211226938Y-96250000D01*
X211226938Y-94750000D01*
X209686938Y-94750000D01*
X209686938Y-95047844D01*
X209096937Y-95047844D01*
X209096938Y-95047827D01*
X209096938Y-94750000D01*
X207556938Y-94750000D01*
X207556938Y-96250000D01*
X207551913Y-96250000D01*
X207521843Y-96219930D01*
X207442033Y-96173852D01*
X207353016Y-96150000D01*
X207260860Y-96150000D01*
X207171843Y-96173852D01*
X207092033Y-96219930D01*
X207026868Y-96285095D01*
X206980790Y-96364905D01*
X206956938Y-96453922D01*
X206956938Y-96546078D01*
X206980790Y-96635095D01*
X207026868Y-96714905D01*
X207061963Y-96750000D01*
X205516938Y-96750000D01*
X205516938Y-97047844D01*
X205523339Y-97107372D01*
X205523341Y-97107379D01*
X205573583Y-97242086D01*
X205573587Y-97242093D01*
X205659747Y-97357186D01*
X205717499Y-97400420D01*
X205759370Y-97456354D01*
X205764354Y-97526046D01*
X205730869Y-97587369D01*
X205717501Y-97598952D01*
X205659392Y-97642453D01*
X205659390Y-97642455D01*
X205573144Y-97757664D01*
X205573140Y-97757671D01*
X205522846Y-97892517D01*
X205516439Y-97952116D01*
X205516439Y-97952123D01*
X205516438Y-97952135D01*
X202183703Y-97952135D01*
X202289363Y-97744766D01*
X202598246Y-97051003D01*
X202870397Y-96342026D01*
X203105070Y-95619776D01*
X203258319Y-95047844D01*
X205516938Y-95047844D01*
X205523339Y-95107372D01*
X205523341Y-95107379D01*
X205573583Y-95242086D01*
X205573587Y-95242093D01*
X205659747Y-95357187D01*
X205717917Y-95400734D01*
X205759787Y-95456668D01*
X205764771Y-95526360D01*
X205731285Y-95587683D01*
X205717917Y-95599266D01*
X205659747Y-95642812D01*
X205573587Y-95757906D01*
X205573583Y-95757913D01*
X205523341Y-95892620D01*
X205523339Y-95892627D01*
X205516938Y-95952155D01*
X205516938Y-96250000D01*
X207056938Y-96250000D01*
X207056938Y-94750000D01*
X205516938Y-94750000D01*
X205516938Y-95047844D01*
X203258319Y-95047844D01*
X203301622Y-94886235D01*
X203355004Y-94635095D01*
X203436858Y-94250000D01*
X203459514Y-94143412D01*
X203578313Y-93393344D01*
X203657693Y-92638086D01*
X203697438Y-91879709D01*
X203697438Y-91120291D01*
X203657693Y-90361914D01*
X203578313Y-89606656D01*
X203459514Y-88856588D01*
X203373925Y-88453922D01*
X203301625Y-88113777D01*
X203258318Y-87952155D01*
X203105070Y-87380224D01*
X203097701Y-87357546D01*
X202997086Y-87047883D01*
X202870397Y-86657974D01*
X202598246Y-85948997D01*
X202289363Y-85255234D01*
X201944594Y-84578587D01*
X201944590Y-84578580D01*
X201564890Y-83920920D01*
X201151282Y-83284018D01*
X201151280Y-83284015D01*
X200704909Y-82669637D01*
X200704907Y-82669635D01*
X200226988Y-82079454D01*
X200226985Y-82079450D01*
X200112350Y-81952135D01*
X205516438Y-81952135D01*
X205516438Y-83047870D01*
X205516439Y-83047876D01*
X205522846Y-83107483D01*
X205573140Y-83242328D01*
X205573144Y-83242335D01*
X205659390Y-83357544D01*
X205659391Y-83357544D01*
X205659392Y-83357546D01*
X205688553Y-83379376D01*
X205717083Y-83400734D01*
X205758953Y-83456668D01*
X205763937Y-83526360D01*
X205730451Y-83587683D01*
X205717083Y-83599266D01*
X205659390Y-83642455D01*
X205573144Y-83757664D01*
X205573140Y-83757671D01*
X205522846Y-83892517D01*
X205519793Y-83920920D01*
X205516439Y-83952123D01*
X205516438Y-83952135D01*
X205516438Y-85047870D01*
X205516439Y-85047876D01*
X205522846Y-85107483D01*
X205573140Y-85242328D01*
X205573144Y-85242335D01*
X205659390Y-85357544D01*
X205659391Y-85357544D01*
X205659392Y-85357546D01*
X205688553Y-85379376D01*
X205717083Y-85400734D01*
X205758953Y-85456668D01*
X205763937Y-85526360D01*
X205730451Y-85587683D01*
X205717083Y-85599266D01*
X205659390Y-85642455D01*
X205573144Y-85757664D01*
X205573140Y-85757671D01*
X205522846Y-85892517D01*
X205516439Y-85952116D01*
X205516439Y-85952123D01*
X205516438Y-85952135D01*
X205516438Y-87047870D01*
X205516439Y-87047876D01*
X205522846Y-87107483D01*
X205573140Y-87242328D01*
X205573144Y-87242335D01*
X205659390Y-87357544D01*
X205659391Y-87357544D01*
X205659392Y-87357546D01*
X205688553Y-87379376D01*
X205717083Y-87400734D01*
X205758953Y-87456668D01*
X205763937Y-87526360D01*
X205730451Y-87587683D01*
X205717083Y-87599266D01*
X205659390Y-87642455D01*
X205573144Y-87757664D01*
X205573140Y-87757671D01*
X205522846Y-87892517D01*
X205516439Y-87952116D01*
X205516439Y-87952123D01*
X205516438Y-87952135D01*
X205516438Y-89047870D01*
X205516439Y-89047876D01*
X205522846Y-89107483D01*
X205573140Y-89242328D01*
X205573144Y-89242335D01*
X205659390Y-89357544D01*
X205659391Y-89357544D01*
X205659392Y-89357546D01*
X205688553Y-89379376D01*
X205717083Y-89400734D01*
X205758953Y-89456668D01*
X205763937Y-89526360D01*
X205730451Y-89587683D01*
X205717083Y-89599266D01*
X205659390Y-89642455D01*
X205573144Y-89757664D01*
X205573140Y-89757671D01*
X205522846Y-89892517D01*
X205516439Y-89952116D01*
X205516439Y-89952123D01*
X205516438Y-89952135D01*
X205516438Y-91047870D01*
X205516439Y-91047876D01*
X205522846Y-91107483D01*
X205573140Y-91242328D01*
X205573144Y-91242335D01*
X205659390Y-91357544D01*
X205659391Y-91357544D01*
X205659392Y-91357546D01*
X205688553Y-91379376D01*
X205717083Y-91400734D01*
X205758953Y-91456668D01*
X205763937Y-91526360D01*
X205730451Y-91587683D01*
X205717083Y-91599266D01*
X205659390Y-91642455D01*
X205573144Y-91757664D01*
X205573140Y-91757671D01*
X205522846Y-91892517D01*
X205516439Y-91952116D01*
X205516439Y-91952123D01*
X205516438Y-91952135D01*
X205516438Y-93047870D01*
X205516439Y-93047876D01*
X205522846Y-93107483D01*
X205573140Y-93242328D01*
X205573144Y-93242335D01*
X205659390Y-93357544D01*
X205659391Y-93357544D01*
X205659392Y-93357546D01*
X205694665Y-93383951D01*
X205717500Y-93401046D01*
X205759370Y-93456980D01*
X205764354Y-93526672D01*
X205730868Y-93587994D01*
X205717500Y-93599578D01*
X205659747Y-93642812D01*
X205573587Y-93757906D01*
X205573583Y-93757913D01*
X205523341Y-93892620D01*
X205523339Y-93892627D01*
X205516938Y-93952155D01*
X205516938Y-94250000D01*
X207061963Y-94250000D01*
X207026868Y-94285095D01*
X206980790Y-94364905D01*
X206956938Y-94453922D01*
X206956938Y-94546078D01*
X206980790Y-94635095D01*
X207026868Y-94714905D01*
X207092033Y-94780070D01*
X207171843Y-94826148D01*
X207260860Y-94850000D01*
X207353016Y-94850000D01*
X207442033Y-94826148D01*
X207521843Y-94780070D01*
X207587008Y-94714905D01*
X207633086Y-94635095D01*
X207656938Y-94546078D01*
X207656938Y-94453922D01*
X207633086Y-94364905D01*
X207587008Y-94285095D01*
X207551913Y-94250000D01*
X209096938Y-94250000D01*
X209096938Y-93952172D01*
X209096937Y-93952155D01*
X209090536Y-93892627D01*
X209090534Y-93892620D01*
X209040292Y-93757913D01*
X209040288Y-93757906D01*
X208954128Y-93642812D01*
X208954125Y-93642809D01*
X208896376Y-93599578D01*
X208854505Y-93543645D01*
X208849521Y-93473953D01*
X208883007Y-93412630D01*
X208896370Y-93401049D01*
X208954484Y-93357546D01*
X209040734Y-93242331D01*
X209091029Y-93107483D01*
X209097438Y-93047873D01*
X209097437Y-91952128D01*
X209091029Y-91892517D01*
X209086259Y-91879729D01*
X209040735Y-91757671D01*
X209040731Y-91757664D01*
X208954485Y-91642456D01*
X208954486Y-91642456D01*
X208954484Y-91642454D01*
X208896792Y-91599265D01*
X208854922Y-91543333D01*
X208849938Y-91473641D01*
X208883423Y-91412318D01*
X208896792Y-91400734D01*
X208954484Y-91357546D01*
X209040734Y-91242331D01*
X209091029Y-91107483D01*
X209097438Y-91047873D01*
X209097437Y-89952128D01*
X209091029Y-89892517D01*
X209040822Y-89757906D01*
X209040735Y-89757671D01*
X209040731Y-89757664D01*
X208989061Y-89688643D01*
X208954484Y-89642454D01*
X208896792Y-89599265D01*
X208854922Y-89543333D01*
X208849938Y-89473641D01*
X208883423Y-89412318D01*
X208896792Y-89400734D01*
X208954484Y-89357546D01*
X209040734Y-89242331D01*
X209091029Y-89107483D01*
X209097438Y-89047873D01*
X209097437Y-87952128D01*
X209091029Y-87892517D01*
X209040822Y-87757906D01*
X209040735Y-87757671D01*
X209040731Y-87757664D01*
X208954752Y-87642812D01*
X208954484Y-87642454D01*
X208896792Y-87599265D01*
X208854922Y-87543333D01*
X208849938Y-87473641D01*
X208883423Y-87412318D01*
X208896792Y-87400734D01*
X208954484Y-87357546D01*
X209040734Y-87242331D01*
X209091029Y-87107483D01*
X209097438Y-87047873D01*
X209097437Y-85952128D01*
X209091029Y-85892517D01*
X209040734Y-85757669D01*
X209040733Y-85757668D01*
X209040731Y-85757664D01*
X208954485Y-85642456D01*
X208954486Y-85642456D01*
X208954484Y-85642454D01*
X208896792Y-85599265D01*
X208854922Y-85543333D01*
X208849938Y-85473641D01*
X208883423Y-85412318D01*
X208896792Y-85400734D01*
X208954484Y-85357546D01*
X209040734Y-85242331D01*
X209091029Y-85107483D01*
X209097438Y-85047873D01*
X209097437Y-83952128D01*
X209091029Y-83892517D01*
X209040734Y-83757669D01*
X209040733Y-83757668D01*
X209040731Y-83757664D01*
X208954485Y-83642456D01*
X208954486Y-83642456D01*
X208954484Y-83642454D01*
X208896792Y-83599265D01*
X208854922Y-83543333D01*
X208849938Y-83473641D01*
X208883423Y-83412318D01*
X208896792Y-83400734D01*
X208954484Y-83357546D01*
X209040734Y-83242331D01*
X209091029Y-83107483D01*
X209097438Y-83047873D01*
X209097437Y-81952135D01*
X209686438Y-81952135D01*
X209686438Y-83047870D01*
X209686439Y-83047876D01*
X209692846Y-83107483D01*
X209743140Y-83242328D01*
X209743144Y-83242335D01*
X209829390Y-83357544D01*
X209829391Y-83357544D01*
X209829392Y-83357546D01*
X209858553Y-83379376D01*
X209887083Y-83400734D01*
X209928953Y-83456668D01*
X209933937Y-83526360D01*
X209900451Y-83587683D01*
X209887083Y-83599266D01*
X209829390Y-83642455D01*
X209743144Y-83757664D01*
X209743140Y-83757671D01*
X209692846Y-83892517D01*
X209689793Y-83920920D01*
X209686439Y-83952123D01*
X209686438Y-83952135D01*
X209686438Y-85047870D01*
X209686439Y-85047876D01*
X209692846Y-85107483D01*
X209743140Y-85242328D01*
X209743144Y-85242335D01*
X209829390Y-85357544D01*
X209829391Y-85357544D01*
X209829392Y-85357546D01*
X209858553Y-85379376D01*
X209887083Y-85400734D01*
X209928953Y-85456668D01*
X209933937Y-85526360D01*
X209900451Y-85587683D01*
X209887083Y-85599266D01*
X209829390Y-85642455D01*
X209743144Y-85757664D01*
X209743140Y-85757671D01*
X209692846Y-85892517D01*
X209686439Y-85952116D01*
X209686439Y-85952123D01*
X209686438Y-85952135D01*
X209686438Y-87047870D01*
X209686439Y-87047876D01*
X209692846Y-87107483D01*
X209743140Y-87242328D01*
X209743144Y-87242335D01*
X209829390Y-87357544D01*
X209829391Y-87357544D01*
X209829392Y-87357546D01*
X209858553Y-87379376D01*
X209887083Y-87400734D01*
X209928953Y-87456668D01*
X209933937Y-87526360D01*
X209900451Y-87587683D01*
X209887083Y-87599266D01*
X209829390Y-87642455D01*
X209743144Y-87757664D01*
X209743140Y-87757671D01*
X209692846Y-87892517D01*
X209686439Y-87952116D01*
X209686439Y-87952123D01*
X209686438Y-87952135D01*
X209686438Y-89047870D01*
X209686439Y-89047876D01*
X209692846Y-89107483D01*
X209743140Y-89242328D01*
X209743144Y-89242335D01*
X209829390Y-89357544D01*
X209829391Y-89357544D01*
X209829392Y-89357546D01*
X209858553Y-89379376D01*
X209887083Y-89400734D01*
X209928953Y-89456668D01*
X209933937Y-89526360D01*
X209900451Y-89587683D01*
X209887083Y-89599266D01*
X209829390Y-89642455D01*
X209743144Y-89757664D01*
X209743140Y-89757671D01*
X209692846Y-89892517D01*
X209686439Y-89952116D01*
X209686439Y-89952123D01*
X209686438Y-89952135D01*
X209686438Y-91047870D01*
X209686439Y-91047876D01*
X209692846Y-91107483D01*
X209743140Y-91242328D01*
X209743144Y-91242335D01*
X209829390Y-91357544D01*
X209829391Y-91357544D01*
X209829392Y-91357546D01*
X209858553Y-91379376D01*
X209887083Y-91400734D01*
X209928953Y-91456668D01*
X209933937Y-91526360D01*
X209900451Y-91587683D01*
X209887083Y-91599266D01*
X209829390Y-91642455D01*
X209743144Y-91757664D01*
X209743140Y-91757671D01*
X209692846Y-91892517D01*
X209686439Y-91952116D01*
X209686439Y-91952123D01*
X209686438Y-91952135D01*
X209686438Y-93047870D01*
X209686439Y-93047876D01*
X209692846Y-93107483D01*
X209743140Y-93242328D01*
X209743144Y-93242335D01*
X209829390Y-93357544D01*
X209829391Y-93357544D01*
X209829392Y-93357546D01*
X209864665Y-93383951D01*
X209887500Y-93401046D01*
X209929370Y-93456980D01*
X209934354Y-93526672D01*
X209900868Y-93587994D01*
X209887500Y-93599578D01*
X209829747Y-93642812D01*
X209743587Y-93757906D01*
X209743583Y-93757913D01*
X209693341Y-93892620D01*
X209693339Y-93892627D01*
X209686938Y-93952155D01*
X209686938Y-94250000D01*
X211231963Y-94250000D01*
X211196868Y-94285095D01*
X211150790Y-94364905D01*
X211126938Y-94453922D01*
X211126938Y-94546078D01*
X211150790Y-94635095D01*
X211196868Y-94714905D01*
X211262033Y-94780070D01*
X211341843Y-94826148D01*
X211430860Y-94850000D01*
X211523016Y-94850000D01*
X211612033Y-94826148D01*
X211691843Y-94780070D01*
X211757008Y-94714905D01*
X211803086Y-94635095D01*
X211826938Y-94546078D01*
X211826938Y-94453922D01*
X211803086Y-94364905D01*
X211757008Y-94285095D01*
X211721913Y-94250000D01*
X213266938Y-94250000D01*
X213266938Y-93952172D01*
X213266937Y-93952155D01*
X213260536Y-93892627D01*
X213260534Y-93892620D01*
X213210292Y-93757913D01*
X213210288Y-93757906D01*
X213124128Y-93642812D01*
X213124125Y-93642809D01*
X213066376Y-93599578D01*
X213024505Y-93543645D01*
X213019521Y-93473953D01*
X213053007Y-93412630D01*
X213066370Y-93401049D01*
X213124484Y-93357546D01*
X213210734Y-93242331D01*
X213261029Y-93107483D01*
X213267438Y-93047873D01*
X213267437Y-91952128D01*
X213261029Y-91892517D01*
X213256259Y-91879729D01*
X213210735Y-91757671D01*
X213210731Y-91757664D01*
X213124485Y-91642456D01*
X213124486Y-91642456D01*
X213124484Y-91642454D01*
X213066792Y-91599265D01*
X213024922Y-91543333D01*
X213019938Y-91473641D01*
X213053423Y-91412318D01*
X213066792Y-91400734D01*
X213124484Y-91357546D01*
X213210734Y-91242331D01*
X213261029Y-91107483D01*
X213267438Y-91047873D01*
X213267437Y-89952128D01*
X213261029Y-89892517D01*
X213210822Y-89757906D01*
X213210735Y-89757671D01*
X213210731Y-89757664D01*
X213159061Y-89688643D01*
X213124484Y-89642454D01*
X213066792Y-89599265D01*
X213024922Y-89543333D01*
X213019938Y-89473641D01*
X213053423Y-89412318D01*
X213066792Y-89400734D01*
X213124484Y-89357546D01*
X213210734Y-89242331D01*
X213261029Y-89107483D01*
X213267438Y-89047873D01*
X213267437Y-87952128D01*
X213261029Y-87892517D01*
X213210822Y-87757906D01*
X213210735Y-87757671D01*
X213210731Y-87757664D01*
X213124752Y-87642812D01*
X213124484Y-87642454D01*
X213066792Y-87599265D01*
X213024922Y-87543333D01*
X213019938Y-87473641D01*
X213053423Y-87412318D01*
X213066792Y-87400734D01*
X213124484Y-87357546D01*
X213210734Y-87242331D01*
X213261029Y-87107483D01*
X213267438Y-87047873D01*
X213267437Y-85952128D01*
X213261029Y-85892517D01*
X213210734Y-85757669D01*
X213210733Y-85757668D01*
X213210731Y-85757664D01*
X213124485Y-85642456D01*
X213124486Y-85642456D01*
X213124484Y-85642454D01*
X213066792Y-85599265D01*
X213024922Y-85543333D01*
X213019938Y-85473641D01*
X213053423Y-85412318D01*
X213066792Y-85400734D01*
X213124484Y-85357546D01*
X213210734Y-85242331D01*
X213261029Y-85107483D01*
X213267438Y-85047873D01*
X213267437Y-83952128D01*
X213261029Y-83892517D01*
X213210734Y-83757669D01*
X213210733Y-83757668D01*
X213210731Y-83757664D01*
X213124485Y-83642456D01*
X213124486Y-83642456D01*
X213124484Y-83642454D01*
X213066792Y-83599265D01*
X213024922Y-83543333D01*
X213019938Y-83473641D01*
X213053423Y-83412318D01*
X213066792Y-83400734D01*
X213124484Y-83357546D01*
X213210734Y-83242331D01*
X213261029Y-83107483D01*
X213267438Y-83047873D01*
X213267437Y-81952128D01*
X213261029Y-81892517D01*
X213210734Y-81757669D01*
X213210733Y-81757668D01*
X213210731Y-81757664D01*
X213124485Y-81642455D01*
X213124482Y-81642452D01*
X213009273Y-81556206D01*
X213009266Y-81556202D01*
X212874420Y-81505908D01*
X212874421Y-81505908D01*
X212814821Y-81499501D01*
X212814819Y-81499500D01*
X212814811Y-81499500D01*
X212814802Y-81499500D01*
X210139067Y-81499500D01*
X210139061Y-81499501D01*
X210079454Y-81505908D01*
X209944609Y-81556202D01*
X209944602Y-81556206D01*
X209829393Y-81642452D01*
X209829390Y-81642455D01*
X209743144Y-81757664D01*
X209743140Y-81757671D01*
X209692846Y-81892517D01*
X209686439Y-81952116D01*
X209686439Y-81952123D01*
X209686438Y-81952135D01*
X209097437Y-81952135D01*
X209097437Y-81952128D01*
X209091029Y-81892517D01*
X209040734Y-81757669D01*
X209040733Y-81757668D01*
X209040731Y-81757664D01*
X208954485Y-81642455D01*
X208954482Y-81642452D01*
X208839273Y-81556206D01*
X208839266Y-81556202D01*
X208704420Y-81505908D01*
X208704421Y-81505908D01*
X208644821Y-81499501D01*
X208644819Y-81499500D01*
X208644811Y-81499500D01*
X208644802Y-81499500D01*
X205969067Y-81499500D01*
X205969061Y-81499501D01*
X205909454Y-81505908D01*
X205774609Y-81556202D01*
X205774602Y-81556206D01*
X205659393Y-81642452D01*
X205659390Y-81642455D01*
X205573144Y-81757664D01*
X205573140Y-81757671D01*
X205522846Y-81892517D01*
X205516439Y-81952116D01*
X205516439Y-81952123D01*
X205516438Y-81952135D01*
X200112350Y-81952135D01*
X199718856Y-81515115D01*
X199718828Y-81515086D01*
X199181851Y-80978109D01*
X199181822Y-80978081D01*
X198617491Y-80469956D01*
X198617483Y-80469949D01*
X198027302Y-79992030D01*
X198027300Y-79992028D01*
X197412922Y-79545657D01*
X197412919Y-79545655D01*
X196776017Y-79132047D01*
X196118357Y-78752347D01*
X195441725Y-78407585D01*
X195441716Y-78407581D01*
X195441704Y-78407575D01*
X194747941Y-78098692D01*
X194038964Y-77826541D01*
X193869128Y-77771358D01*
X193316717Y-77591868D01*
X192583160Y-77395312D01*
X191840382Y-77237430D01*
X191840355Y-77237425D01*
X191840350Y-77237424D01*
X191840342Y-77237422D01*
X191840338Y-77237422D01*
X191090288Y-77118625D01*
X190556243Y-77062495D01*
X190335024Y-77039245D01*
X190335019Y-77039244D01*
X190335012Y-77039244D01*
X189576667Y-76999501D01*
X189576665Y-76999500D01*
X189576647Y-76999500D01*
X188817229Y-76999500D01*
X188817211Y-76999500D01*
X188817208Y-76999501D01*
X188058867Y-77039244D01*
X188058859Y-77039244D01*
X187303587Y-77118625D01*
X186553537Y-77237422D01*
X186553493Y-77237430D01*
X185810715Y-77395312D01*
X185077159Y-77591868D01*
X185077158Y-77591868D01*
X184354915Y-77826540D01*
X184354895Y-77826547D01*
X183645932Y-78098693D01*
X183358761Y-78226550D01*
X182952172Y-78407575D01*
X182952165Y-78407578D01*
X182952164Y-78407579D01*
X182952150Y-78407585D01*
X182275518Y-78752347D01*
X181617858Y-79132047D01*
X180980956Y-79545655D01*
X180980953Y-79545657D01*
X180366575Y-79992028D01*
X180366573Y-79992030D01*
X179776392Y-80469949D01*
X179776384Y-80469956D01*
X179212053Y-80978081D01*
X179212024Y-80978109D01*
X178675047Y-81515086D01*
X178675019Y-81515115D01*
X178166894Y-82079446D01*
X178166887Y-82079454D01*
X177688968Y-82669635D01*
X177688966Y-82669637D01*
X177242595Y-83284015D01*
X177242593Y-83284018D01*
X176828985Y-83920920D01*
X176449285Y-84578580D01*
X176104523Y-85255212D01*
X176104516Y-85255226D01*
X176104513Y-85255234D01*
X175983800Y-85526360D01*
X175795631Y-85948994D01*
X175523485Y-86657957D01*
X175523478Y-86657977D01*
X175288806Y-87380220D01*
X175288806Y-87380221D01*
X175092250Y-88113777D01*
X174934368Y-88856555D01*
X174934360Y-88856599D01*
X174815563Y-89606649D01*
X174736182Y-90361921D01*
X174736182Y-90361929D01*
X174731361Y-90453922D01*
X174696438Y-91120291D01*
X172866252Y-91120291D01*
X172871029Y-91107483D01*
X172877438Y-91047873D01*
X172877437Y-89952128D01*
X172871029Y-89892517D01*
X172820822Y-89757906D01*
X172820735Y-89757671D01*
X172820731Y-89757664D01*
X172769061Y-89688643D01*
X172734484Y-89642454D01*
X172676792Y-89599265D01*
X172634922Y-89543333D01*
X172629938Y-89473641D01*
X172663423Y-89412318D01*
X172676792Y-89400734D01*
X172734484Y-89357546D01*
X172820734Y-89242331D01*
X172871029Y-89107483D01*
X172877438Y-89047873D01*
X172877437Y-87952128D01*
X172871029Y-87892517D01*
X172820822Y-87757906D01*
X172820735Y-87757671D01*
X172820731Y-87757664D01*
X172734752Y-87642812D01*
X172734484Y-87642454D01*
X172676792Y-87599265D01*
X172634922Y-87543333D01*
X172629938Y-87473641D01*
X172663423Y-87412318D01*
X172676792Y-87400734D01*
X172734484Y-87357546D01*
X172820734Y-87242331D01*
X172871029Y-87107483D01*
X172877438Y-87047873D01*
X172877437Y-85952128D01*
X172871029Y-85892517D01*
X172820734Y-85757669D01*
X172820733Y-85757668D01*
X172820731Y-85757664D01*
X172734485Y-85642456D01*
X172734486Y-85642456D01*
X172734484Y-85642454D01*
X172676792Y-85599265D01*
X172634922Y-85543333D01*
X172629938Y-85473641D01*
X172663423Y-85412318D01*
X172676792Y-85400734D01*
X172734484Y-85357546D01*
X172820734Y-85242331D01*
X172871029Y-85107483D01*
X172877438Y-85047873D01*
X172877437Y-83952128D01*
X172871029Y-83892517D01*
X172820734Y-83757669D01*
X172820733Y-83757668D01*
X172820731Y-83757664D01*
X172734485Y-83642456D01*
X172734486Y-83642456D01*
X172734484Y-83642454D01*
X172676792Y-83599265D01*
X172634922Y-83543333D01*
X172629938Y-83473641D01*
X172663423Y-83412318D01*
X172676792Y-83400734D01*
X172734484Y-83357546D01*
X172820734Y-83242331D01*
X172871029Y-83107483D01*
X172877438Y-83047873D01*
X172877437Y-81952128D01*
X172871029Y-81892517D01*
X172820734Y-81757669D01*
X172820733Y-81757668D01*
X172820731Y-81757664D01*
X172734485Y-81642455D01*
X172734482Y-81642452D01*
X172619273Y-81556206D01*
X172619266Y-81556202D01*
X172484420Y-81505908D01*
X172484421Y-81505908D01*
X172424821Y-81499501D01*
X172424819Y-81499500D01*
X172424811Y-81499500D01*
X172424802Y-81499500D01*
X169749067Y-81499500D01*
X169749061Y-81499501D01*
X169689454Y-81505908D01*
X169554609Y-81556202D01*
X169554602Y-81556206D01*
X169439393Y-81642452D01*
X169439390Y-81642455D01*
X169353144Y-81757664D01*
X169353140Y-81757671D01*
X169302846Y-81892517D01*
X169296439Y-81952116D01*
X169296439Y-81952123D01*
X169296438Y-81952135D01*
X168707437Y-81952135D01*
X168707437Y-81952128D01*
X168701029Y-81892517D01*
X168650734Y-81757669D01*
X168650733Y-81757668D01*
X168650731Y-81757664D01*
X168564485Y-81642455D01*
X168564482Y-81642452D01*
X168449273Y-81556206D01*
X168449266Y-81556202D01*
X168314420Y-81505908D01*
X168314421Y-81505908D01*
X168254821Y-81499501D01*
X168254819Y-81499500D01*
X168254811Y-81499500D01*
X168254802Y-81499500D01*
X165579067Y-81499500D01*
X165579061Y-81499501D01*
X165519454Y-81505908D01*
X165384609Y-81556202D01*
X165384602Y-81556206D01*
X165269393Y-81642452D01*
X165269390Y-81642455D01*
X165183144Y-81757664D01*
X165183140Y-81757671D01*
X165132846Y-81892517D01*
X165126439Y-81952116D01*
X165126439Y-81952123D01*
X165126438Y-81952135D01*
X164697438Y-81952135D01*
X164697438Y-76978581D01*
X164715621Y-76913938D01*
X164715646Y-76913898D01*
X165130336Y-76235069D01*
X165132578Y-76231535D01*
X165206779Y-76118833D01*
X165660880Y-75429111D01*
X165663211Y-75425697D01*
X166218409Y-74641574D01*
X166220884Y-74638202D01*
X166802273Y-73873364D01*
X166804835Y-73870109D01*
X167411826Y-73125337D01*
X167414473Y-73122198D01*
X168046327Y-72398406D01*
X168049082Y-72395355D01*
X168705094Y-71693345D01*
X168707953Y-71690388D01*
X169387324Y-71011018D01*
X169390281Y-71008159D01*
X170092292Y-70352147D01*
X170095343Y-70349392D01*
X170819137Y-69717541D01*
X170822276Y-69714893D01*
X171567048Y-69107903D01*
X171570288Y-69105353D01*
X172335161Y-68523938D01*
X172338478Y-68521503D01*
X173122640Y-67966283D01*
X173126054Y-67963952D01*
X173807314Y-67515423D01*
X173874130Y-67495000D01*
X173941383Y-67513942D01*
G37*
%TD.AperFunction*%
%TD*%
M02*
